<?xml version="1.0" standalone="no"?><!DOCTYPE svg PUBLIC "-//W3C//DTD SVG 1.1//EN" "http://www.w3.org/Graphics/SVG/1.1/DTD/svg11.dtd"><svg t="1576140920593" class="icon" viewBox="0 0 1024 1024" version="1.1" xmlns="http://www.w3.org/2000/svg" p-id="2236" xmlns:xlink="http://www.w3.org/1999/xlink" width="200" height="200"><defs><style type="text/css"></style></defs><path d="M877.568 236.544c-8.192-3.072-198.656-71.68-359.424 27.648-161.792-98.304-351.232-30.72-359.424-27.648-12.288 4.096-20.48 16.384-20.48 28.672l0 463.872c0 9.216 4.096 18.432 12.288 24.576 7.168 6.144 17.408 8.192 26.624 5.12 208.896-52.224 316.416 41.984 320.512 46.08 2.048 2.048 5.12 3.072 8.192 5.12 0 0 1.024 1.024 1.024 1.024 0 0 0 0 1.024 0 4.096 2.048 7.168 2.048 11.264 2.048s8.192-1.024 11.264-2.048c0 0 0 0 1.024 0 0 0 1.024-1.024 1.024-1.024 3.072-1.024 5.12-3.072 8.192-5.12 1.024-1.024 108.544-99.328 320.512-46.08 9.216 2.048 18.432 0 26.624-5.12 7.168-6.144 12.288-14.336 12.288-24.576L900.096 265.216C897.024 251.904 889.856 240.64 877.568 236.544zM296.96 681.984c-29.696 0-62.464 3.072-97.28 9.216L199.68 287.744c49.152-13.312 179.2-38.912 287.744 28.672l0 409.6C446.464 704.512 382.976 681.984 296.96 681.984zM836.608 691.2c-137.216-25.6-233.472 6.144-287.744 34.816l0-409.6c108.544-66.56 238.592-41.984 287.744-28.672L836.608 691.2z" p-id="2237" fill="#2c2c2c"></path></svg>