<?xml version="1.0" standalone="no"?><!DOCTYPE svg PUBLIC "-//W3C//DTD SVG 1.1//EN" "http://www.w3.org/Graphics/SVG/1.1/DTD/svg11.dtd"><svg t="1576741120433" class="icon" viewBox="0 0 1024 1024" version="1.1" xmlns="http://www.w3.org/2000/svg" p-id="14120" xmlns:xlink="http://www.w3.org/1999/xlink" width="32" height="32"><defs><style type="text/css"></style></defs><path d="M200.6 745.2h-45V140.4h-48.8v604.8H61.7V95.4h138.9zM962.3 745.2h-45.1V140.4h-48.7v604.8h-45.1V95.4h138.9z"  p-id="14121"></path><path d="M868.5 165.8v-56.6h-45v56.6c0 163.3-139.7 296.1-311.4 296.1S200.7 329.1 200.7 165.8v-51.9h-45v51.9C155.7 272.2 207 367.4 287 430v202.7H178.1v45H846v-45H727.6V436.8c85.4-62.3 140.9-160.5 140.9-271zM331.9 459.7c46.8 26.4 100.3 42.7 157.6 46.2v126.8H331.9v-173z m350.7 173h-148V505.8c53.3-3.2 103.6-17.3 148-40.6v167.5z"  p-id="14122"></path><path d="M869.3 817.9c0 35.1-32.1 63.7-71.7 63.7-39.5 0-71.7-28.6-71.7-63.7h-47c0 35.1-32.1 63.7-71.7 63.7-39.5 0-71.7-28.6-71.7-63.7h-47c0 35.1-32.1 63.7-71.7 63.7s-71.7-28.6-71.7-63.7H298c0 35.1-32.1 63.7-71.7 63.7s-71.7-28.6-71.7-63.7h-47c0 61.1 53.2 110.8 118.7 110.8 39.2 0 73.7-18 95.4-45.5 21.6 27.4 56.2 45.5 95.4 45.5 39.1 0 73.5-17.9 95.2-45.2 21.6 27.3 56.1 45.2 95.2 45.2s73.5-17.9 95.2-45.2c21.6 27.3 56.1 45.2 95.2 45.2 65.4 0 118.7-49.7 118.7-110.8h-47.3z"  p-id="14123"></path></svg>