<?xml version="1.0" standalone="no"?><!DOCTYPE svg PUBLIC "-//W3C//DTD SVG 1.1//EN" "http://www.w3.org/Graphics/SVG/1.1/DTD/svg11.dtd"><svg t="1576741497834" class="icon" viewBox="0 0 1024 1024" version="1.1" xmlns="http://www.w3.org/2000/svg" p-id="25307" xmlns:xlink="http://www.w3.org/1999/xlink" width="32" height="32"><defs><style type="text/css"></style></defs><path d="M294.2 479.8c8.9-7.3 13.3-18.5 13.3-33.8 0-14.5-4.4-25-13.3-31.4-8.6-6.7-22.8-10.1-42.7-10.1H175v85.8h75.7c19.9-0.1 34.4-3.5 43.5-10.5z" p-id="25308" ></path><path d="M921.6 102.4H102.4C45.8 102.4 0 148.2 0 204.8v614.4c0 56.6 45.8 102.4 102.4 102.4h819.2c56.6 0 102.4-45.8 102.4-102.4V204.8c0-56.6-45.8-102.4-102.4-102.4zM333.7 638.9c-16.9 11.3-40.7 16.9-71.3 16.9H131.1V368.2h131.3c28.2 0 50.2 6.7 66.1 20.1 15.3 12.9 23 30.4 23 52.4 0 16.1-4 29.8-12.1 41.1-8.3 10.7-19.5 18.7-33.4 23.8 19.1 3.8 33.4 11.4 43.1 23 9.7 11.6 14.5 27.1 14.5 46.7-0.1 28.7-10 49.9-29.9 63.6z m287.7-233.3h-95.9v250.2H482V405.6h-96.3v-37.5h235.7v37.5z m271.5 250.2h-42.7L701.6 439.5H700v216.4h-44V368.2h44.3l147.1 213.9h1.6V368.2h43.9v287.6z" p-id="25309" ></path><path d="M304.3 537.4c-9.9-7.5-25.5-11.3-46.7-11.3H175v93.5h81.4c18 0 32.5-3 43.5-8.9 13.2-7.8 19.7-19.9 19.7-36.3 0-16.9-5.1-29.2-15.3-37z" p-id="25310" ></path></svg>