<?xml version="1.0" standalone="no"?><!DOCTYPE svg PUBLIC "-//W3C//DTD SVG 1.1//EN" "http://www.w3.org/Graphics/SVG/1.1/DTD/svg11.dtd"><svg t="1576745714653" class="icon" viewBox="0 0 1024 1024" version="1.1" xmlns="http://www.w3.org/2000/svg" p-id="48554" xmlns:xlink="http://www.w3.org/1999/xlink" width="32" height="32"><defs><style type="text/css"></style></defs><path d="M896.58 380.54h-76a21.15 21.15 0 0 0-9.9 2.66l-34.26-103c-10.94-58.57-52.29-86.88-103.06-86.88h-322c-58.32 0-93.7 37.94-103.08 86.82L214 383.48a21.1 21.1 0 0 0-10.52-3h-76a21.13 21.13 0 0 0-21.17 21.12v18.32a21.17 21.17 0 0 0 21.17 21.14l28.71 4.94a132.36 132.36 0 0 0-14.25 61.62l-10.65 121.55a89.11 89.11 0 0 0 0.69 10.72 40 40 0 0 0-0.69 6.9V793a37.7 37.7 0 0 0 37.76 37.67h57.62A37.73 37.73 0 0 0 264.46 793v-47h495.77v47A37.7 37.7 0 0 0 798 830.69h57.66A37.71 37.71 0 0 0 893.42 793V646.76a34.6 34.6 0 0 0-0.71-6.87 89.21 89.21 0 0 0 0.71-10.73l-10.67-121.55c0-23.66-5.21-43.93-14.3-61.71l28.11-4.76A21.13 21.13 0 0 0 917.75 420v-18.32a21.23 21.23 0 0 0-21.19-21.14z m-622.9-21.61l25.16-66.83 0.31-1.57c2.5-13.48 8.08-15.92 16.35-26.32h394c8.35 10.72 13.55 13.44 15.81 26.22L750.87 359l9.38 37.23C758.12 423.47 725.28 445 698 445H326.52c-27.31 0-60.15-21.51-62.26-48.78z m17.61 317.8a57.13 57.13 0 1 1 57.9-54.63 57.12 57.12 0 0 1-57.9 54.63z m319.56-42.1a17 17 0 0 1-17 17H433.33a17 17 0 0 1-17-16.94V587a17 17 0 0 1 17-17h160.49a17 17 0 0 1 17 17z m122.41 42.1a57 57 0 1 1 57.21-57.05 57.11 57.11 0 0 1-57.21 57.05z m0 0" p-id="48555" ></path></svg>