<?xml version="1.0" standalone="no"?><!DOCTYPE svg PUBLIC "-//W3C//DTD SVG 1.1//EN" "http://www.w3.org/Graphics/SVG/1.1/DTD/svg11.dtd"><svg t="1576745630455" class="icon" viewBox="0 0 1024 1024" version="1.1" xmlns="http://www.w3.org/2000/svg" p-id="46624" xmlns:xlink="http://www.w3.org/1999/xlink" width="32" height="32"><defs><style type="text/css"></style></defs><path d="M529.810286 986.88a309.467429 309.467429 0 0 1-264.96-150.747429 316.928 316.928 0 0 1-10.386286-307.309714l237.312-434.285714c8.338286-13.056 22.674286-20.955429 38.034286-20.955429 15.36 0 29.696 7.899429 38.034285 20.955429l236.836572 434.285714a323.657143 323.657143 0 0 1 35.766857 146.102857c-1.243429 172.653714-139.958857 311.954286-310.637714 311.954286z m0-855.698286l-230.034286 420.973715c-56.685714 110.262857-29.037714 245.613714 66.194286 324.059428a256.731429 256.731429 0 0 0 327.168 0c95.268571-78.445714 122.916571-213.796571 66.267428-324.022857L529.810286 131.145143z" p-id="46625" ></path><path d="M724.516571 574.610286l-52.516571-98.486857h-6.326857a462.372571 462.372571 0 0 1-350.976 159.890285 227.437714 227.437714 0 0 0-3.657143 39.387429c-1.462857 92.891429 54.308571 176.932571 139.922286 210.651428A217.965714 217.965714 0 0 0 694.857143 826.660571a224.182857 224.182857 0 0 0 29.622857-251.977142z" p-id="46626" ></path></svg>