<?xml version="1.0" standalone="no"?><!DOCTYPE svg PUBLIC "-//W3C//DTD SVG 1.1//EN" "http://www.w3.org/Graphics/SVG/1.1/DTD/svg11.dtd"><svg t="1576741418047" class="icon" viewBox="0 0 1024 1024" version="1.1" xmlns="http://www.w3.org/2000/svg" p-id="23271" xmlns:xlink="http://www.w3.org/1999/xlink" width="32" height="32"><defs><style type="text/css"></style></defs><path d="M83.456 559.104l-13.312-15.36c4.096-3.584 96.768-81.408 230.4-39.424 121.344 38.4 208.896 3.584 213.504 2.048 6.656-3.072 96.256-45.568 224.256-50.688 131.584-5.12 222.72 48.64 226.304 51.2l-10.752 17.408c-1.024-0.512-90.112-53.248-215.04-48.128-125.952 5.12-215.552 48.128-216.576 48.64-4.096 2.048-96.768 40.448-228.352-1.024-122.368-38.912-209.408 34.816-210.432 35.328z"  p-id="23272"></path><path d="M877.056 865.792c-36.864 0-84.48-0.512-138.752-2.56-128.512-5.12-217.6-47.104-224.256-50.688-4.608-2.048-92.16-36.352-213.504 2.048-130.048 40.96-220.672 34.816-224.256 34.816l1.536-20.48c1.024 0 91.136 6.144 217.088-33.792 131.584-41.472 223.744-3.072 227.84-1.024 1.536 0.512 90.624 44.032 217.088 48.64 128 5.12 219.136 1.536 219.648 1.536l1.024 20.48c-1.024 0-32.256 1.024-83.456 1.024zM952.32 646.144c-1.024-0.512-88.576-74.24-210.944-35.328-131.584 41.472-223.744 3.072-227.84 1.024h-0.512c-1.024-0.512-89.6-43.52-216.064-48.64-125.44-5.12-214.016 47.616-215.04 48.128l-10.24-17.408c3.584-2.048 94.72-56.32 226.304-51.2 128.512 5.12 217.088 47.104 223.744 50.688 4.608 2.048 92.16 36.352 213.504-2.048 133.632-41.984 226.304 35.84 230.4 39.424l-13.312 15.36z"  p-id="23273"></path><path d="M954.368 683.52c-1.024-0.512-90.112-43.52-214.016-20.48-130.048 23.552-221.184 2.048-224.768 1.024-1.024-0.512-91.136-25.6-218.624-28.16-126.464-3.072-216.064 27.648-217.088 28.16l-6.656-19.456c3.584-1.536 93.696-32.256 224.256-29.184 130.048 3.072 219.648 28.16 223.232 29.184 0.512 0 90.624 21.504 216.064-1.024 131.584-24.576 223.232 20.48 227.328 22.528l-9.728 17.408zM954.368 437.76c-1.024-0.512-85.504-51.712-215.04-49.664-78.848 1.024-218.624-48.128-224.768-50.176-1.024-0.512-137.728-46.592-218.112-53.248-126.464-10.752-216.064 12.8-217.088 13.312l-7.68-20.48c3.584-1.024 93.696-24.576 223.744-13.824 82.944 6.656 218.112 52.224 223.744 54.272 1.536 0.512 142.336 50.176 217.6 49.152 136.192-2.048 223.232 51.2 226.816 53.248l-9.216 17.408z"  p-id="23274"></path><path d="M952.32 640.512c-1.024-1.024-89.6-87.552-212.992-82.432-66.048 2.56-107.52 10.752-140.8 17.408-31.744 6.144-54.272 10.752-81.408 6.656-33.792-2.048-57.856-16.896-88.064-35.84-30.72-18.944-69.632-43.008-134.656-63.488-122.88-38.912-209.92 34.816-210.944 35.328l-13.312-15.36c4.096-3.584 96.768-81.408 230.4-39.424 67.584 21.504 107.008 46.08 139.264 65.536 29.184 17.92 50.176 31.232 79.36 32.768h1.024c24.064 3.584 45.056-0.512 74.752-6.656 32.256-6.144 76.288-14.848 143.872-17.408 133.12-5.12 224.256 84.48 228.352 88.576l-14.848 14.336z"  p-id="23275"></path><path d="M371.2 835.072c-27.648 0-55.808-9.216-79.872-26.112-112.128-79.36-209.92-43.52-210.944-43.52l-7.168-18.944c4.608-1.536 109.056-40.448 230.4 45.568 27.136 19.456 61.44 26.624 90.624 19.456 28.16-6.656 51.2-26.112 66.048-55.296 17.92-35.328 38.4-54.272 61.44-55.808 21.504-2.048 42.496 11.264 63.488 39.424 21.504 29.184 60.416 20.992 100.864 11.776 17.408-4.096 35.84-8.192 52.224-8.704 126.976-5.12 217.088-31.744 218.112-31.744l5.632 19.456c-3.584 1.024-93.184 27.648-223.232 32.768-14.848 0.512-31.232 4.096-48.64 8.192-43.008 9.728-92.16 20.48-121.856-19.456-11.264-14.848-28.16-32.256-45.056-31.232-14.848 1.024-30.72 16.896-45.056 45.056-17.92 34.816-45.568 57.856-79.872 66.048-8.192 2.048-17.92 3.072-27.136 3.072z"  p-id="23276"></path><path d="M371.2 740.864c-27.136 0-54.272-4.096-76.8-11.264-114.176-36.864-215.04-19.968-216.064-19.456l-3.584-19.968c4.096-0.512 106.496-17.92 225.792 20.48 52.224 16.384 126.976 15.36 162.304-15.872 34.816-30.72 77.312-33.792 119.808-8.192 23.04 13.824 65.024 9.728 105.472 5.632 17.408-1.536 34.816-3.584 51.2-4.096 128-2.56 218.624-14.848 219.648-14.848l2.56 20.48c-1.024 0-92.672 12.288-221.696 14.848-15.36 0.512-31.744 2.048-49.152 3.584-44.032 4.608-89.088 9.216-117.76-8.192-34.304-20.48-67.584-18.432-95.232 6.144-26.624 21.504-66.56 30.72-106.496 30.72z"  p-id="23277"></path><path d="M321.024 788.992c-10.752 0-20.48-3.072-29.696-9.728-112.128-79.36-209.92-43.52-210.944-43.52l-7.168-18.944c4.608-1.536 109.056-40.448 230.4 45.568 8.192 5.632 16.896 7.168 27.136 4.608 41.984-10.24 96.768-83.968 130.048-147.968 17.92-35.328 38.4-54.272 61.44-55.808 21.504-2.048 42.496 11.264 63.488 39.424 40.448 54.784 108.032 112.128 153.088 110.592 126.976-5.12 217.088-31.744 218.112-31.744l5.632 19.456c-3.584 1.024-93.184 27.648-223.232 32.768-58.88 2.048-134.144-69.632-170.496-118.784-11.264-14.848-28.16-32.256-45.056-31.232-14.848 1.024-30.72 16.896-45.056 45.056-33.792 65.536-91.648 145.92-143.36 158.72-4.608 1.024-9.728 1.536-14.336 1.536z"  p-id="23278"></path><path d="M71.68 163.84h10.24v716.8h-10.24zM292.352 163.84h10.24v716.8h-10.24zM513.024 163.84h10.24v716.8h-10.24zM733.696 163.84h10.24v716.8h-10.24zM953.856 163.84h10.24v716.8h-10.24z"  p-id="23279"></path></svg>