<?xml version="1.0" standalone="no"?><!DOCTYPE svg PUBLIC "-//W3C//DTD SVG 1.1//EN" "http://www.w3.org/Graphics/SVG/1.1/DTD/svg11.dtd"><svg t="1576741467111" class="icon" viewBox="0 0 1024 1024" version="1.1" xmlns="http://www.w3.org/2000/svg" p-id="24497" xmlns:xlink="http://www.w3.org/1999/xlink" width="32" height="32"><defs><style type="text/css"></style></defs><path d="M512 170.666667c-225.28 0-409.6 187.733333-409.6 416.426666 0 58.026667 13.653333 116.053333 34.133333 167.253334 17.066667 40.96 58.026667 64.853333 102.4 64.853333h546.133334c44.373333 0 85.333333-23.893333 102.4-64.853333 20.48-51.2 34.133333-105.813333 34.133333-167.253334 0-228.693333-184.32-416.426667-409.6-416.426666z m0 64.853333c30.72 0 58.026667 27.306667 58.026667 58.026667 0 34.133333-27.306667 58.026667-58.026667 58.026666-30.72 0-58.026667-27.306667-58.026667-58.026666 0-30.72 27.306667-58.026667 58.026667-58.026667z m-296.96 409.6c-30.72 0-58.026667-27.306667-58.026667-58.026667s27.306667-58.026667 58.026667-58.026666c30.72 0 58.026667 27.306667 58.026667 58.026666 0 30.72-27.306667 58.026667-58.026667 58.026667z m88.746667-208.213333c-30.72 0-58.026667-27.306667-58.026667-58.026667 0-34.133333 27.306667-58.026667 58.026667-58.026667 30.72 0 58.026667 27.306667 58.026666 58.026667 0 30.72-23.893333 58.026667-58.026666 58.026667z m303.786666-10.24l-47.786666 177.493333c23.893333 17.066667 37.546667 40.96 37.546666 71.68 0 47.786667-37.546667 85.333333-85.333333 85.333333s-85.333333-37.546667-85.333333-85.333333c0-44.373333 30.72-78.506667 71.68-85.333333l47.786666-180.906667c3.413333-17.066667 23.893333-27.306667 37.546667-23.893333 20.48 6.826667 30.72 23.893333 23.893333 40.96z m54.613334-51.2c0-34.133333 27.306667-58.026667 58.026666-58.026667 30.72 0 58.026667 27.306667 58.026667 58.026667 0 34.133333-27.306667 58.026667-58.026667 58.026666-34.133333 3.413333-58.026667-23.893333-58.026666-58.026666z m146.773333 269.653333c-30.72 0-58.026667-27.306667-58.026667-58.026667s27.306667-58.026667 58.026667-58.026666c30.72 0 58.026667 27.306667 58.026667 58.026666 0 30.72-23.893333 58.026667-58.026667 58.026667z"  p-id="24498"></path></svg>