<?xml version="1.0" standalone="no"?><!DOCTYPE svg PUBLIC "-//W3C//DTD SVG 1.1//EN" "http://www.w3.org/Graphics/SVG/1.1/DTD/svg11.dtd"><svg t="1576740936720" class="icon" viewBox="0 0 1165 1024" version="1.1" xmlns="http://www.w3.org/2000/svg" p-id="3192" xmlns:xlink="http://www.w3.org/1999/xlink" width="36.40625" height="32"><defs><style type="text/css"></style></defs><path d="M123.374345 998.788414A105.719172 105.719172 0 0 1 17.655172 893.069241V123.374345A105.719172 105.719172 0 0 1 123.374345 17.655172h916.303448a105.719172 105.719172 0 0 1 105.719173 105.719173v769.694896a105.719172 105.719172 0 0 1-105.719173 105.719173H123.374345z m0-910.653793a35.239724 35.239724 0 0 0-35.239724 35.239724v769.694896a35.239724 35.239724 0 0 0 35.239724 35.239725h916.303448a35.239724 35.239724 0 0 0 35.239724-35.239725V123.374345a35.239724 35.239724 0 0 0-35.239724-35.239724H123.374345z" p-id="3193" ></path><path d="M1114.394483 247.031172H70.585379a35.239724 35.239724 0 1 1 0-70.479448h1043.879724a35.239724 35.239724 0 1 1 0 70.479448zM185.37931 596.321103a35.239724 35.239724 0 0 1-26.800551-59.921655l160.026482-158.543448a35.239724 35.239724 0 0 1 50.070069 0 35.239724 35.239724 0 0 1 0 49.293241L210.061241 585.798621a35.239724 35.239724 0 0 1-24.64662 10.593103z" p-id="3194" ></path><path d="M343.993379 754.935172c-9.533793-0.03531-18.643862-3.848828-25.388138-10.593103l-159.955862-158.578759a35.239724 35.239724 0 0 1 0-49.363862 35.239724 35.239724 0 0 1 49.999449 0l161.438896 158.614069a35.239724 35.239724 0 0 1-24.681931 59.886345h-1.412414z m634.350345-158.614069c-9.533793 0-18.643862-3.813517-25.352827-10.593103l-160.026483-158.543448a35.239724 35.239724 0 0 1 0-49.363862 35.239724 35.239724 0 0 1 50.070069 0l161.368276 158.578758a35.239724 35.239724 0 0 1-24.646621 59.921655h-1.412414z" p-id="3195" ></path><path d="M819.764966 754.935172a35.239724 35.239724 0 0 1-25.388138-59.921655l158.614069-158.614069a35.239724 35.239724 0 0 1 50.034758 0 35.239724 35.239724 0 0 1 0 49.363862l-158.614069 158.578759a35.239724 35.239724 0 0 1-24.64662 10.593103z m-353.103449 70.479449a41.666207 41.666207 0 0 1-15.536551-3.531035 34.533517 34.533517 0 0 1-15.501242-47.245241l211.438345-422.87669a35.239724 35.239724 0 0 1 65.006345 4.096 34.533517 34.533517 0 0 1-2.259862 26.906483l-211.438345 422.912a34.533517 34.533517 0 0 1-31.744 19.738483z" p-id="3196" ></path></svg>