<?xml version="1.0" standalone="no"?><!DOCTYPE svg PUBLIC "-//W3C//DTD SVG 1.1//EN" "http://www.w3.org/Graphics/SVG/1.1/DTD/svg11.dtd"><svg t="1576740837895" class="icon" viewBox="0 0 1024 1024" version="1.1" xmlns="http://www.w3.org/2000/svg" p-id="2136" width="32" height="32" xmlns:xlink="http://www.w3.org/1999/xlink"><defs><style type="text/css"></style></defs><path d="M800 825.9c0 15.4-12.6 28-28 28H158c-15.4 0-28-12.6-28-28s12.6-28 28-28h614c15.4 0 28 12.6 28 28zM796.6 242.2c-0.7-0.9-1.5-1.8-2.3-2.6-0.6-0.6-1.3-1.2-2-1.8L663.1 108.6c-3.4-3.4-7.5-5.8-11.9-7-10.2-4.2-22.3-2.2-30.5 6l-76 76c-0.7 0.6-1.5 1.3-2.2 1.9-0.7 0.7-1.3 1.4-1.9 2.2L222.2 506.2l-0.2 0.2c-3.6 3.6-6 8-7.2 12.6-0.2 0.6-0.4 1.3-0.6 1.9L166 699.6c-4.2 6.7-5.6 15.1-3.1 23.1 4.5 14.7 20.2 23.1 35 18.6L378.6 686c4.6-0.4 9.2-2.1 13.2-4.8 3.6-2.1 6.7-5 9-8.3l387.6-387.6c2.5-1.3 4.9-3 7-5.1 10.2-10.3 10.7-27 1.2-38z m-101.1 56.7l-93.4-93.4 39.4-39.4 93.4 93.4-39.4 39.4zM256.2 579.8l65.1 65.1-90.1 27.6 25-92.7zM375 619.4L281.6 526l280.9-280.9 93.4 93.4L375 619.4z"  p-id="2137"></path></svg>