<?xml version="1.0" standalone="no"?><!DOCTYPE svg PUBLIC "-//W3C//DTD SVG 1.1//EN" "http://www.w3.org/Graphics/SVG/1.1/DTD/svg11.dtd"><svg t="1576740987821" class="icon" viewBox="0 0 1024 1024" version="1.1" xmlns="http://www.w3.org/2000/svg" p-id="4035" xmlns:xlink="http://www.w3.org/1999/xlink" width="32" height="32"><defs><style type="text/css"></style></defs><path d="M456.4 575c0-16.7-6.5-32.3-18.3-44.1-4.7-4.7-10-8.5-15.7-11.4 9.8-8.2 16.1-20.5 16.1-34.3 0-24.5-20-44.5-44.5-44.5s-44.5 20-44.5 44.5c0 13.8 6.3 26.1 16.1 34.3-5.7 2.9-11 6.7-15.7 11.4-11.8 11.8-18.3 27.4-18.3 44.1 0 4.9 4 8.9 8.9 8.9 0.4 0 0.9 0 1.3-0.1h104.4c0.4 0.1 0.9 0.1 1.3 0.1s0.9 0 1.3-0.1h0.8l-0.1-0.1c4-0.9 6.9-4.5 6.9-8.7zM456.4 951.6c0-16.7-6.5-32.3-18.3-44.1-4.7-4.7-10-8.5-15.7-11.4 9.8-8.2 16.1-20.5 16.1-34.3 0-24.5-20-44.5-44.5-44.5s-44.5 20-44.5 44.5c0 13.8 6.3 26.1 16.1 34.3-5.7 2.9-11 6.7-15.7 11.4-11.8 11.8-18.3 27.4-18.3 44.1 0 4.9 4 8.9 8.9 8.9 0.4 0 0.9 0 1.3-0.1h104.4c0.4 0.1 0.9 0.1 1.3 0.1s0.9 0 1.3-0.1h0.8l-0.1-0.1c4-0.9 6.9-4.5 6.9-8.7zM456.4 763.3c0-16.7-6.5-32.3-18.3-44.1-4.7-4.7-10-8.5-15.7-11.4 9.8-8.2 16.1-20.5 16.1-34.3 0-24.5-20-44.5-44.5-44.5s-44.5 20-44.5 44.5c0 13.8 6.3 26.1 16.1 34.3-5.7 2.9-11 6.7-15.7 11.4-11.8 11.8-18.3 27.4-18.3 44.1 0 4.9 4 8.9 8.9 8.9 0.4 0 0.9 0 1.3-0.1h104.4c0.4 0.1 0.9 0.1 1.3 0.1s0.9 0 1.3-0.1h0.8l-0.1-0.1c4-0.9 6.9-4.5 6.9-8.7zM456.4 386.6c0-16.7-6.5-32.3-18.3-44.1-4.7-4.7-10-8.5-15.7-11.4 9.8-8.2 16.1-20.5 16.1-34.3 0-24.5-20-44.5-44.5-44.5s-44.5 20-44.5 44.5c0 13.8 6.3 26.1 16.1 34.3-5.7 2.9-11 6.7-15.7 11.4-11.8 11.8-18.3 27.4-18.3 44.1 0 4.9 4 8.9 8.9 8.9 0.4 0 0.9 0 1.3-0.1h104.4c0.4 0.1 0.9 0.1 1.3 0.1s0.9 0 1.3-0.1h0.8l-0.1-0.1c4-0.9 6.9-4.5 6.9-8.7zM456.4 198.3c0-16.7-6.5-32.3-18.3-44.1-4.7-4.7-10-8.5-15.7-11.4 9.8-8.2 16.1-20.5 16.1-34.3 0-24.5-20-44.5-44.5-44.5s-44.5 20-44.5 44.5c0 13.8 6.3 26.1 16.1 34.3-5.7 2.9-11 6.7-15.7 11.4-11.8 11.8-18.3 27.4-18.3 44.1 0 4.9 4 8.9 8.9 8.9 0.4 0 0.9 0 1.3-0.1h104.4c0.4 0.1 0.9 0.1 1.3 0.1s0.9 0 1.3-0.1h0.8l-0.1-0.1c4-0.9 6.9-4.5 6.9-8.7zM691.5 951.6c0-16.7-6.5-32.3-18.3-44.1-4.7-4.7-10-8.5-15.7-11.4 9.8-8.2 16.1-20.5 16.1-34.3 0-24.5-20-44.5-44.5-44.5s-44.5 20-44.5 44.5c0 13.8 6.3 26.1 16.1 34.3-5.7 2.9-11 6.7-15.7 11.4-11.8 11.8-18.3 27.4-18.3 44.1 0 4.9 4 8.9 8.9 8.9 0.4 0 0.9 0 1.3-0.1h104.4c0.4 0.1 0.9 0.1 1.3 0.1s0.9 0 1.3-0.1h0.8l-0.1-0.1c4-0.9 6.9-4.5 6.9-8.7zM691.5 763.3c0-16.7-6.5-32.3-18.3-44.1-4.7-4.7-10-8.5-15.7-11.4 9.8-8.2 16.1-20.5 16.1-34.3 0-24.5-20-44.5-44.5-44.5s-44.5 20-44.5 44.5c0 13.8 6.3 26.1 16.1 34.3-5.7 2.9-11 6.7-15.7 11.4-11.8 11.8-18.3 27.4-18.3 44.1 0 4.9 4 8.9 8.9 8.9 0.4 0 0.9 0 1.3-0.1h104.4c0.4 0.1 0.9 0.1 1.3 0.1s0.9 0 1.3-0.1h0.8l-0.1-0.1c4-0.9 6.9-4.5 6.9-8.7zM691.5 575c0-16.7-6.5-32.3-18.3-44.1-4.7-4.7-10-8.5-15.7-11.4 9.8-8.2 16.1-20.5 16.1-34.3 0-24.5-20-44.5-44.5-44.5s-44.5 20-44.5 44.5c0 13.8 6.3 26.1 16.1 34.3-5.7 2.9-11 6.7-15.7 11.4-11.8 11.8-18.3 27.4-18.3 44.1 0 4.9 4 8.9 8.9 8.9 0.4 0 0.9 0 1.3-0.1h104.4c0.4 0.1 0.9 0.1 1.3 0.1s0.9 0 1.3-0.1h0.8l-0.1-0.1c4-0.9 6.9-4.5 6.9-8.7zM691.5 386.6c0-16.7-6.5-32.3-18.3-44.1-4.7-4.7-10-8.5-15.7-11.4 9.8-8.2 16.1-20.5 16.1-34.3 0-24.5-20-44.5-44.5-44.5s-44.5 20-44.5 44.5c0 13.8 6.3 26.1 16.1 34.3-5.7 2.9-11 6.7-15.7 11.4-11.8 11.8-18.3 27.4-18.3 44.1 0 4.9 4 8.9 8.9 8.9 0.4 0 0.9 0 1.3-0.1h104.4c0.4 0.1 0.9 0.1 1.3 0.1s0.9 0 1.3-0.1h0.8l-0.1-0.1c4-0.9 6.9-4.5 6.9-8.7zM926.8 951.6c0-16.7-6.5-32.3-18.3-44.1-4.7-4.7-10-8.5-15.7-11.4 9.8-8.2 16.1-20.5 16.1-34.3 0-24.5-20-44.5-44.5-44.5s-44.5 20-44.5 44.5c0 13.8 6.3 26.1 16.1 34.3-5.7 2.9-11 6.7-15.7 11.4-11.8 11.8-18.3 27.4-18.3 44.1 0 4.9 4 8.9 8.9 8.9 0.4 0 0.9 0 1.3-0.1h104.4c0.4 0.1 0.9 0.1 1.3 0.1s0.9 0 1.3-0.1h0.8l-0.1-0.1c4-0.9 6.9-4.5 6.9-8.7zM926.8 763.3c0-16.7-6.5-32.3-18.3-44.1-4.7-4.7-10-8.5-15.7-11.4 9.8-8.2 16.1-20.5 16.1-34.3 0-24.5-20-44.5-44.5-44.5s-44.5 20-44.5 44.5c0 13.8 6.3 26.1 16.1 34.3-5.7 2.9-11 6.7-15.7 11.4-11.8 11.8-18.3 27.4-18.3 44.1 0 4.9 4 8.9 8.9 8.9 0.4 0 0.9 0 1.3-0.1h104.4c0.4 0.1 0.9 0.1 1.3 0.1s0.9 0 1.3-0.1h0.8l-0.1-0.1c4-0.9 6.9-4.5 6.9-8.7zM223.1 951.6c0-16.7-6.5-32.3-18.3-44.1-4.7-4.7-10-8.5-15.7-11.4 9.8-8.2 16.1-20.5 16.1-34.3 0-24.5-20-44.5-44.5-44.5s-44.5 20-44.5 44.5c0 13.8 6.3 26.1 16.1 34.3-5.7 2.9-11 6.7-15.7 11.4-11.8 11.8-18.3 27.4-18.3 44.1 0 4.9 4 8.9 8.9 8.9 0.4 0 0.9 0 1.3-0.1h104.4c0.4 0.1 0.9 0.1 1.3 0.1s0.9 0 1.3-0.1h0.8l-0.1-0.1c4-0.9 6.9-4.5 6.9-8.7zM223.1 763.3c0-16.7-6.5-32.3-18.3-44.1-4.7-4.7-10-8.5-15.7-11.4 9.8-8.2 16.1-20.5 16.1-34.3 0-24.5-20-44.5-44.5-44.5s-44.5 20-44.5 44.5c0 13.8 6.3 26.1 16.1 34.3-5.7 2.9-11 6.7-15.7 11.4-11.8 11.8-18.3 27.4-18.3 44.1 0 4.9 4 8.9 8.9 8.9 0.4 0 0.9 0 1.3-0.1h104.4c0.4 0.1 0.9 0.1 1.3 0.1s0.9 0 1.3-0.1h0.8l-0.1-0.1c4-0.9 6.9-4.5 6.9-8.7zM223.1 575c0-16.7-6.5-32.3-18.3-44.1-4.7-4.7-10-8.5-15.7-11.4 9.8-8.2 16.1-20.5 16.1-34.3 0-24.5-20-44.5-44.5-44.5s-44.5 20-44.5 44.5c0 13.8 6.3 26.1 16.1 34.3-5.7 2.9-11 6.7-15.7 11.4-11.8 11.8-18.3 27.4-18.3 44.1 0 4.9 4 8.9 8.9 8.9 0.4 0 0.9 0 1.3-0.1h104.4c0.4 0.1 0.9 0.1 1.3 0.1s0.9 0 1.3-0.1h0.8l-0.1-0.1c4-0.9 6.9-4.5 6.9-8.7z"  p-id="4036"></path></svg>