<?xml version="1.0" standalone="no"?><!DOCTYPE svg PUBLIC "-//W3C//DTD SVG 1.1//EN" "http://www.w3.org/Graphics/SVG/1.1/DTD/svg11.dtd"><svg t="1576741674771" class="icon" viewBox="0 0 1024 1024" version="1.1" xmlns="http://www.w3.org/2000/svg" p-id="31918" xmlns:xlink="http://www.w3.org/1999/xlink" width="32" height="32"><defs><style type="text/css"></style></defs><path d="M625.644449 379.476141a256.439986 256.439986 0 0 0 65.821943 44.47861h-65.821943v-44.47861z m282.839161 44.47861A257.079966 257.079966 0 0 0 1023.968001 316.054123v574.318053H625.644449V801.28696h309.75032v-43.006656h-309.75032v-68.093872h309.75032v-43.006656h-309.75032V578.57392h309.75032v-43.006656h-309.75032v-68.605857h309.75032v-43.006656h-26.911159zM577.005969 317.878066V1024L0 914.947408V109.084591L577.005969 0.031999v66.141933A254.840036 254.840036 0 0 0 543.983001 192.025999c0 45.75857 11.999625 88.701228 33.022968 125.852067zM229.368832 660.49136l73.725696-125.43608 70.141808 125.43608h93.693072l-119.804256-190.970033 112.63648-177.658448h-89.085216l-67.581888 119.804256L237.560576 291.862879h-92.15712l112.63648 180.730352-118.268304 187.898129h89.5972z"  p-id="31919"></path><path d="M667.307147 359.060779c-8.127746 2.111934-16.863473-6.303803-19.51939-15.35952A223.03303 223.03303 0 0 1 639.980001 285.239086c0-105.692697 93.277085-215.545264 193.369957-233.464704v-3.51989c0-1.055967 0-2.431924 0.31999-3.51989l0.31999-1.375957c0.95997-7.67976 3.551889-25.535202 19.807381-36.734852 6.527796-4.575857 13.663573-6.623793 21.11934-6.623793 9.119715 0 16.543483 3.51989 21.11934 6.303803 0.95997 0.31999 1.59995 1.055967 2.55992 1.727946l97.852942 83.261398c10.719665 8.767726 17.247461 23.071279 17.247461 37.790819 0 15.03953-6.527796 29.375082-17.567451 38.142808L898.723915 250.264179a37.534827 37.534827 0 0 1-24.063248 9.087716c-7.455767 0-14.655542-2.463923-21.43933-7.03978-12.959595-9.087716-19.51939-23.071279-19.51939-42.686666v-0.735977c-64.989969 7.743758-137.083716 70.07781-153.019218 128.827974-2.975907 9.471704-8.447736 21.343333-13.375582 21.343333z m198.489797-301.43058v21.75932c0 11.51964-8.415737 21.023343-19.135402 21.695322-77.341583 4.575857-158.587044 87.101278-172.218618 168.63473 40.95872-55.934252 108.15662-101.468829 172.506609-96.572982 10.719665 0.735977 18.87941 10.143683 18.87941 21.663323v23.167276c0 3.103903 0.287991 4.575857 0.287991 5.215837l96.828974-82.589419a4.031874 4.031874 0 0 0 1.59995-3.51989 4.671854 4.671854 0 0 0-1.59995-3.51989l-96.156995-81.821443c-0.671979 1.055967-0.95997 3.83988-1.27996 5.567826l0.31999 0.31999z"  p-id="31920"></path></svg>