<?xml version="1.0" standalone="no"?><!DOCTYPE svg PUBLIC "-//W3C//DTD SVG 1.1//EN" "http://www.w3.org/Graphics/SVG/1.1/DTD/svg11.dtd"><svg t="1576741863846" class="icon" viewBox="0 0 1024 1024" version="1.1" xmlns="http://www.w3.org/2000/svg" p-id="44661" xmlns:xlink="http://www.w3.org/1999/xlink" width="32" height="32"><defs><style type="text/css"></style></defs><path d="M931.9 243.8L780.2 92.1C762.1 74 738.1 64 712.5 64H161c-53.5 0-97 43.5-97 97v702c0 53.5 43.5 97 97 97h351c17.7 0 32-14.3 32-32s-14.3-32-32-32H384V768H256v128h-95c-18.2 0-33-14.8-33-33V161c0-18.2 14.8-33 33-33h95v64h128v-64h328.5c8.5 0 16.5 3.3 22.5 9.3L886.7 289c6 6 9.3 14 9.3 22.5V512c0 17.7 14.3 32 32 32s32-14.3 32-32V311.5c0-25.6-10-49.6-28.1-67.7z" p-id="44662" ></path><path d="M959.9 798.1c0-0.3 0-0.5-0.1-0.8 0-0.3-0.1-0.6-0.1-0.9 0-0.2 0-0.4-0.1-0.6 0-0.3-0.1-0.7-0.2-1 0-0.2-0.1-0.4-0.1-0.5-0.1-0.3-0.1-0.7-0.2-1 0-0.2-0.1-0.3-0.1-0.5-0.1-0.3-0.2-0.6-0.3-1-0.1-0.2-0.1-0.4-0.2-0.6l-0.3-0.9c-0.1-0.2-0.1-0.4-0.2-0.6-0.1-0.3-0.2-0.5-0.3-0.8-0.1-0.2-0.2-0.5-0.3-0.7-0.1-0.2-0.2-0.4-0.3-0.7-0.1-0.3-0.2-0.5-0.4-0.8-0.1-0.2-0.2-0.4-0.3-0.5-0.1-0.3-0.3-0.6-0.4-0.9-0.1-0.2-0.2-0.3-0.3-0.4-0.2-0.3-0.3-0.6-0.5-0.9-0.1-0.1-0.2-0.3-0.2-0.4l-0.6-0.9c-0.1-0.1-0.2-0.2-0.3-0.4l-0.6-0.9c-0.1-0.1-0.2-0.3-0.3-0.4-0.2-0.3-0.4-0.6-0.7-0.8-0.1-0.2-0.3-0.3-0.4-0.5-0.2-0.2-0.4-0.5-0.6-0.7-0.2-0.2-0.4-0.5-0.7-0.7l-0.4-0.4-128.2-128.5c-12.5-12.5-32.8-12.5-45.3 0s-12.5 32.8 0 45.3l73.8 73.8H592c-17.7 0-32 14.3-32 32s14.3 32 32 32h258.7l-73.4 73.4c-12.5 12.5-12.5 32.8 0 45.3 6.2 6.2 14.4 9.4 22.6 9.4s16.4-3.1 22.6-9.4l128-128 0.4-0.4 0.7-0.7c0.2-0.2 0.4-0.5 0.6-0.7 0.1-0.2 0.3-0.3 0.4-0.5 0.2-0.3 0.4-0.6 0.7-0.8 0.1-0.1 0.2-0.3 0.3-0.4l0.6-0.9c0.1-0.1 0.2-0.2 0.3-0.4l0.6-0.9c0.1-0.1 0.2-0.3 0.2-0.4 0.2-0.3 0.4-0.6 0.5-0.9 0.1-0.1 0.2-0.3 0.3-0.4 0.2-0.3 0.3-0.6 0.4-0.9 0.1-0.2 0.2-0.4 0.3-0.5 0.1-0.3 0.2-0.5 0.4-0.8 0.1-0.2 0.2-0.4 0.3-0.7 0.1-0.2 0.2-0.5 0.3-0.7 0.1-0.3 0.2-0.5 0.3-0.8 0.1-0.2 0.1-0.4 0.2-0.6l0.3-0.9c0.1-0.2 0.1-0.4 0.2-0.6 0.1-0.3 0.2-0.6 0.3-1 0-0.2 0.1-0.3 0.1-0.5 0.1-0.3 0.2-0.7 0.2-1 0-0.2 0.1-0.4 0.1-0.5 0.1-0.3 0.1-0.7 0.2-1 0-0.2 0.1-0.4 0.1-0.6 0-0.3 0.1-0.6 0.1-0.9 0-0.3 0-0.5 0.1-0.8 0-0.2 0-0.5 0.1-0.7 0.1-1.1 0.1-2.1 0-3.2-0.2-0.5-0.2-0.8-0.2-1zM197.4 689.8c5.9 8.9 15.9 14.3 26.6 14.3h160c17.7 0 32-14.3 32-32s-14.3-32-32-32H272l141.5-339.7c4.1-9.9 3-21.2-2.9-30.1-5.9-8.9-15.9-14.2-26.6-14.2H224c-17.7 0-32 14.3-32 32s14.3 32 32 32h112L194.5 659.7c-4.2 9.9-3.1 21.1 2.9 30.1zM512 256c-17.7 0-32 14.3-32 32v384c0 17.7 14.3 32 32 32s32-14.3 32-32V288c0-17.7-14.3-32-32-32zM704 673.6v-160h39.5c48.8 0 88.5-39.7 88.5-88.5v-79c0-48.8-39.7-88.5-88.5-88.5H672c-17.7 0-32 14.3-32 32v384c0 17.7 14.3 32 32 32s32-14.3 32-32z m0-352h39.5c13.5 0 24.5 11 24.5 24.5v79c0 13.5-11 24.5-24.5 24.5H704v-128z" p-id="44663" ></path></svg>