<?xml version="1.0" standalone="no"?><!DOCTYPE svg PUBLIC "-//W3C//DTD SVG 1.1//EN" "http://www.w3.org/Graphics/SVG/1.1/DTD/svg11.dtd"><svg t="1576745683671" class="icon" viewBox="0 0 1024 1024" version="1.1" xmlns="http://www.w3.org/2000/svg" p-id="47729" xmlns:xlink="http://www.w3.org/1999/xlink" width="32" height="32"><defs><style type="text/css"></style></defs><path d="M898.412964 491.364216l-0.045154-0.09031a158.228376 158.228376 0 0 0-11.554008-19.811708l-75.194179-129.030096h-0.045155c-7.969838-23.147525-29.875604-39.79839-55.726778-39.79839s-47.75694 16.65651-55.726777 39.79839h-0.045155l-12.084577 20.726094-94.18181-161.603704h-0.067733c-11.356455-32.996935-42.597994-56.742763-79.455672-56.742762-36.852034 0-68.087929 23.745827-79.450027 56.742762h-0.067733L340.597685 363.163841l-12.084577-20.731739h-0.045155c-7.969838-23.147525-29.875604-39.79839-55.721133-39.79839-25.851174 0-47.762584 16.65651-55.721134 39.79839h-0.050799L141.803285 471.439621a157.415588 157.415588 0 0 0-11.599162 19.890728l-0.022577 0.033867h0.005644a157.957447 157.957447 0 0 0-16.041274 69.544173c0 83.993738 65.310903 152.696902 147.916128 158.200155v91.74909a10.696064 10.696064 0 0 0 21.38084 0v-91.74909a157.821982 157.821982 0 0 0 85.969265-32.539742c35.60463 29.745783 80.460368 48.784213 129.650975 52.057943v130.813714a15.239775 15.239775 0 0 0 30.485195 0v-130.813714c49.190607-3.273729 94.046345-22.31216 129.645331-52.057943a157.821982 157.821982 0 0 0 85.96362 32.539742v91.74909a10.701709 10.701709 0 0 0 21.392129 0v-91.74909c82.605225-5.508896 147.910484-74.206416 147.910484-158.200155a158.042112 158.042112 0 0 0-16.046919-69.544173zM283.43724 718.374777a10.696064 10.696064 0 0 0-21.38084 0V409.695954a10.69042 10.69042 0 0 1 21.38084 0v308.678823z m246.105434 19.207761a15.239775 15.239775 0 0 0-30.485194 0V297.463477a15.239775 15.239775 0 0 1 30.485194 0v440.119061z m237.001081-19.207761a10.701709 10.701709 0 0 0-21.392129 0V409.695954a10.701709 10.701709 0 0 1 21.392129 0v308.678823z"  p-id="47730"></path></svg>