<?xml version="1.0" standalone="no"?><!DOCTYPE svg PUBLIC "-//W3C//DTD SVG 1.1//EN" "http://www.w3.org/Graphics/SVG/1.1/DTD/svg11.dtd"><svg t="1576741721223" class="icon" viewBox="0 0 1024 1024" version="1.1" xmlns="http://www.w3.org/2000/svg" p-id="33371" xmlns:xlink="http://www.w3.org/1999/xlink" width="32" height="32"><defs><style type="text/css"></style></defs><path d="M157.538462 78.769231a78.769231 78.769231 0 0 0-78.769231 78.769231v157.538461a78.769231 78.769231 0 0 0 78.769231 78.769231h157.538461a78.769231 78.769231 0 0 0 78.769231-78.769231V157.538462a78.769231 78.769231 0 0 0-78.769231-78.769231H157.538462z m0-78.769231h157.538461a157.538462 157.538462 0 0 1 157.538462 157.538462v157.538461a157.538462 157.538462 0 0 1-157.538462 157.538462H157.538462a157.538462 157.538462 0 0 1-157.538462-157.538462V157.538462a157.538462 157.538462 0 0 1 157.538462-157.538462z m0 630.153846a78.769231 78.769231 0 0 0-78.769231 78.769231v157.538461a78.769231 78.769231 0 0 0 78.769231 78.769231h157.538461a78.769231 78.769231 0 0 0 78.769231-78.769231v-157.538461a78.769231 78.769231 0 0 0-78.769231-78.769231H157.538462z m0-78.769231h157.538461a157.538462 157.538462 0 0 1 157.538462 157.538462v157.538461a157.538462 157.538462 0 0 1-157.538462 157.538462H157.538462a157.538462 157.538462 0 0 1-157.538462-157.538462v-157.538461a157.538462 157.538462 0 0 1 157.538462-157.538462zM589.430154 157.538462C568.398769 157.538462 551.384615 139.894154 551.384615 118.153846s17.014154-39.384615 38.045539-39.384615h396.130461c21.031385 0 38.045538 17.644308 38.045539 39.384615s-17.014154 39.384615-38.045539 39.384616H589.430154z m0 275.692307c-21.031385 0-38.045538-17.644308-38.045539-39.384615s17.014154-39.384615 38.045539-39.384616h396.130461c21.031385 0 38.045538 17.644308 38.045539 39.384616s-17.014154 39.384615-38.045539 39.384615H589.430154z m0 275.692308c-21.031385 0-38.045538-17.644308-38.045539-39.384615s17.014154-39.384615 38.045539-39.384616h396.130461c21.031385 0 38.045538 17.644308 38.045539 39.384616s-17.014154 39.384615-38.045539 39.384615H589.430154z m0 275.692308c-21.031385 0-38.045538-17.644308-38.045539-39.384616s17.014154-39.384615 38.045539-39.384615h396.130461c21.031385 0 38.045538 17.644308 38.045539 39.384615s-17.014154 39.384615-38.045539 39.384616H589.430154z"  p-id="33372"></path></svg>