<?xml version="1.0" standalone="no"?><!DOCTYPE svg PUBLIC "-//W3C//DTD SVG 1.1//EN" "http://www.w3.org/Graphics/SVG/1.1/DTD/svg11.dtd"><svg t="1576028234096" class="icon" viewBox="0 0 1024 1024" version="1.1" xmlns="http://www.w3.org/2000/svg" p-id="3452" xmlns:xlink="http://www.w3.org/1999/xlink" width="18" height="18"><defs><style type="text/css"></style></defs><path d="M583.68 716.8l81.92-179.2 81.92 179.2h-163.84z m332.8 133.12l-204.8-460.8c-5.12-20.48-25.6-30.72-46.08-30.72s-40.96 10.24-46.08 30.72l-102.4 225.28H512c-66.56 0-112.64-15.36-153.6-35.84C424.96 501.76 450.56 394.24 460.8 307.2h51.2c30.72 0 51.2-20.48 51.2-51.2s-20.48-51.2-51.2-51.2h-46.08C460.8 174.08 460.8 148.48 460.8 148.48c-5.12-30.72-25.6-46.08-56.32-46.08-30.72 5.12-51.2 30.72-46.08 56.32V204.8H153.6c-30.72 0-51.2 20.48-51.2 51.2s20.48 51.2 51.2 51.2h204.8c-10.24 71.68-25.6 148.48-71.68 199.68-25.6-30.72-30.72-56.32-30.72-61.44-10.24-25.6-35.84-40.96-61.44-35.84-30.72 10.24-46.08 35.84-40.96 61.44 5.12 25.6 20.48 56.32 40.96 87.04-10.24 5.12-25.6 5.12-40.96 5.12-30.72 0-51.2 20.48-51.2 51.2s20.48 51.2 51.2 51.2c46.08 0 81.92-10.24 117.76-25.6 51.2 35.84 117.76 66.56 199.68 71.68L409.6 844.8c-10.24 25.6 0 56.32 25.6 66.56 25.6 10.24 56.32 0 66.56-25.6l30.72-71.68h250.88l30.72 71.68c10.24 20.48 25.6 30.72 46.08 30.72 5.12 0 15.36 0 20.48-5.12 35.84-5.12 46.08-35.84 35.84-61.44z" fill="#515151" p-id="3453"></path></svg>