<?xml version="1.0" standalone="no"?><!DOCTYPE svg PUBLIC "-//W3C//DTD SVG 1.1//EN" "http://www.w3.org/Graphics/SVG/1.1/DTD/svg11.dtd"><svg t="1577177336061" class="icon" viewBox="0 0 1024 1024" version="1.1" xmlns="http://www.w3.org/2000/svg" p-id="51592" xmlns:xlink="http://www.w3.org/1999/xlink" width="16" height="16"><defs><style type="text/css"></style></defs><path d="M775.125333 467.2l31.573334-31.488 62.976 62.890667-31.36 31.36c5.973333 11.434667 11.093333 24.448 14.762666 36.138666h42.410667v92.245334h-42.496a324.693333 324.693333 0 0 1-15.274667 35.541333l32 31.957333-63.018666 62.890667-31.317334-31.232a178.858667 178.858667 0 0 1-0.256 0.170667v98.048a40.277333 40.277333 0 0 1-40.32 40.277333H210.944A40.277333 40.277333 0 0 1 170.666667 855.722667V210.944C170.666667 188.714667 188.714667 170.666667 210.944 170.666667h523.861333c22.272 0 40.32 18.048 40.32 40.277333v256.298667zM262.144 333.141333v35.541334h184.832v-35.541334H262.144z m0 118.357334v35.541333h184.832v-35.541333H262.144z m0 123.093333v35.498667h184.832v-35.498667H262.144z m0 123.050667v35.541333h184.832v-35.541333H262.144z m420.181333 81.493333h21.333334v-34.048l13.44-3.328c18.090667-4.565333 39.68-13.44 51.328-21.205333l12.117333-8.021334 26.24 26.069334 12.757333-12.714667-24.917333-24.917333 5.76-11.434667c8.96-17.706667 18.090667-36.010667 22.314667-53.12l3.413333-13.44h34.048v-21.333333h-34.090667l-3.413333-13.44c-4.437333-17.962667-13.354667-39.509333-21.205333-51.2l-8.106667-12.16 26.197333-26.069334-12.8-12.8-24.874666 24.917334-11.434667-5.76c-17.749333-8.917333-36.096-18.090667-53.248-22.357334l-13.44-3.328v-34.005333h-21.333333v34.005333l-13.44 3.328c-17.152 4.266667-35.498667 13.44-53.248 22.357334l-11.434667 5.76-24.917333-24.874667-12.757334 12.757333 24.917334 24.874667-5.76 11.434667c-9.258667 18.56-18.090667 36.096-22.272 53.12l-3.413334 13.44h-34.090666v21.333333h34.090666l3.413334 13.44c4.437333 17.962667 13.354667 39.509333 21.205333 51.2l8.064 12.16-26.24 26.112 12.8 12.714667 24.874667-24.874667 11.434666 5.76c17.664 8.832 35.925333 18.005333 53.248 22.357333l13.44 3.328v33.92z m10.666667-84.352a82.688 82.688 0 0 1-82.688-82.56 82.688 82.688 0 1 1 165.333333 0 82.773333 82.773333 0 0 1-82.645333 82.56z m0-129.536c-25.941333 0-47.104 21.12-47.104 47.061333a47.146667 47.146667 0 0 0 94.208 0c0-26.026667-21.162667-47.061333-47.104-47.061333z" p-id="51593"></path></svg>