<?xml version="1.0" standalone="no"?><!DOCTYPE svg PUBLIC "-//W3C//DTD SVG 1.1//EN" "http://www.w3.org/Graphics/SVG/1.1/DTD/svg11.dtd"><svg t="1577177216745" class="icon" viewBox="0 0 1024 1024" version="1.1" xmlns="http://www.w3.org/2000/svg" p-id="50557" width="16" height="16" xmlns:xlink="http://www.w3.org/1999/xlink"><defs><style type="text/css"></style></defs><path d="M781.467368 377.276316h53.889474c59.269421 0 107.778947 48.509526 107.778948 107.778947v431.16579c0 59.269421-48.509526 107.778947-107.778948 107.778947H188.643158c-59.269421 0-107.778947-48.509526-107.778948-107.778947V485.055263c0-59.269421 48.509526-107.778947 107.778948-107.778947h53.889474V269.497368C242.532632 120.728821 363.261453 0 512.02 0s269.497368 120.728821 269.497368 269.497368v107.778948h-0.05zM512.02 808.432105c59.269421 0 107.778947-48.509526 107.778947-107.778947s-48.509526-107.778947-107.778947-107.778948-107.778947 48.509526-107.778948 107.778948c0 59.279421 48.509526 107.778947 107.778948 107.778947z m167.058368-431.155789V269.497368c0-92.1591-74.889269-167.048369-167.048368-167.048368S344.971631 177.338268 344.971631 269.497368v107.778948h334.146737-0.04z" p-id="50558" fill="#efefef"></path></svg>