<?xml version="1.0" standalone="no"?><!DOCTYPE svg PUBLIC "-//W3C//DTD SVG 1.1//EN" "http://www.w3.org/Graphics/SVG/1.1/DTD/svg11.dtd"><svg t="1576741328934" class="icon" viewBox="0 0 1024 1024" version="1.1" xmlns="http://www.w3.org/2000/svg" p-id="20907" xmlns:xlink="http://www.w3.org/1999/xlink" width="32" height="32"><defs><style type="text/css"></style></defs><path d="M512 0L0 372.608l196.288 603.008h631.424L1024 372.608 512 0z m28.416 85.312l392.576 284.48-91.008 31.296-301.568-258.88v-56.896z m0 128l244.672 207.68-244.672 79.616V213.312z m270.272 253.184l-153.6 224.704-102.4-142.208 256-82.56zM611.584 716.8l-264.576 93.888L514.816 583.04 611.584 716.8zM469.312 554.688l-164.928 224.64-76.8-292.928 241.728 68.288zM244.672 435.2L486.4 230.4v273.088L244.608 435.2zM486.4 85.312v76.8l-304.384 256-113.728-31.296L486.4 85.376zM224.704 887.488l-145.088-440.96 88.192 25.6 93.888 364.16-36.992 51.2z m39.808 34.112l25.6-34.112 352.704-125.184 116.672 159.296H264.512z m537.6-34.112L691.2 736.64l199.104-295.808-2.816-2.88 65.408-22.72-150.784 472.192z" p-id="20908" ></path></svg>