<?xml version="1.0" standalone="no"?><!DOCTYPE svg PUBLIC "-//W3C//DTD SVG 1.1//EN" "http://www.w3.org/Graphics/SVG/1.1/DTD/svg11.dtd"><svg t="1576745726655" class="icon" viewBox="0 0 1024 1024" version="1.1" xmlns="http://www.w3.org/2000/svg" p-id="48973" xmlns:xlink="http://www.w3.org/1999/xlink" width="32" height="32"><defs><style type="text/css"></style></defs><path d="M928.2 900.8c-8.6-8.8-21.4-10.1-31.6-10.1-0.5-0.1-1.4-0.6-1.7-1-1.6-1.8-3.1-4-4.7-6.4-2.8-4.2-6-8.9-10.6-12.6-16.1-12.7-30.1-24.5-39.4-40.1-3.7-6.2-7.2-12.8-10.7-19.2-4.2-7.7-8.5-15.7-13.2-23.4-6.1-9.8-12.7-16-19.8-18.4-9.3-3.2-18.9-5.4-28.1-7.5-7.4-1.7-14.3-3.3-21.2-5.4-19.3-5.8-30-18-32.6-37.5-0.3-2.1-0.5-4.2-0.7-6.5-0.4-4.8-0.9-9.8-2.2-14.9-1.7-6.6-2.9-13.3-4.2-20.4-3.8-21-8.1-44.7-27.1-62.9 0.3-0.2 0.6-0.3 0.9-0.5 1.3-0.7 2.7-1.4 4.2-2.4 10.1-6.8 16.7-19.9 17.8-34.9 1-14.9-3.7-28.6-12.6-36.7-2.8-2.5-5.9-3.5-8.9-4.5-1.3-0.4-2.7-0.9-4.3-1.5-3.8-1.5-8.1-0.5-10.9 2.5-2.8 3-3.5 7.4-1.8 11.1 0.9 1.9 1.7 3.5 2.3 4.9 1 2.1 1.7 3.5 2.2 4.8 3 7.8 3.2 15.5 0.6 20.6-2 3.9-5.7 6.5-11.3 8-6.7 1.8-15.1 2.3-24.3 1.4-8.5-0.8-17.3-2.2-25.9-3.5-11.9-1.8-24.1-3.7-36.5-4.3-51-2.5-105.3-7-156.6-23-17.4-5.4-27.3-12.8-32.2-23.9-5.8-13.3-6.7-25.9-2.8-39.4 8.8-30.4 15.8-61.8 22.6-92.1l0.4-1.9c1.2-5.4 3.1-7.9 7.7-10.2 9.7-4.8 19.2-9.5 28-15.6 11.2-7.7 18-18.7 20.8-33.9 0.6-3.4-0.5-6.8-3-9.1s-6-3.2-9.3-2.4l-27.2 7.1c-7.7-12.1-18.7-17.4-25.2-19.7-1.7-4.8-4.2-13.2-4.7-15.7-0.3-6.3-0.2-12.8-0.2-19.6v-8.3c0-4.3-2.8-8.2-6.9-9.5-4.1-1.3-8.6 0.1-11.2 3.6-7.7 10.6-17.1 27.2-9 47.8 0.9 2.4 0.9 3.5 0.9 3.9-0.2 0.2-1 0.9-3.1 1.5-1.7 0.6-3.2 1.2-4.7 1.8-2.1 0.9-4.2 1.7-5.9 2-7.7 1.6-15.5 3.1-23.1 4.5-10.9 2.1-22.3 4.2-33.4 6.7-22.1 4.9-38.9 9.1-54.6 13.8-7.3 2.2-14.7 9.7-17.1 17.5-1.7 5.5-1.2 10.9 1.4 15.7 2.9 5.3 8.2 9.1 15.2 11l1.8 0.5c3.8 1 7.5 2 10.4 3.5 2.1 1.1 4.2 2.1 6.4 3.1 11.1 5.5 21.6 10.7 31.4 17.1 1.9 1.2 4.2 5.4 4.2 7-0.6 10.9-1.8 25-6.1 37.1-6.3 17.4-13.6 35-20.6 52-5.2 12.6-10.5 25.5-15.5 38.5-14.3 37.1-17.7 68.3-10.6 98.1 0.8 3.3 1.5 6.6 2.1 10.1-0.6 0.3-1.2 0.6-1.7 1-4.2 2.9-8.5 6.1-12.6 9.1-20.3 14.9-41.4 30.3-58.4 30.4-0.2 0-17.6 0.3-21.7 11.4-4.1 11-6.1 21.2-6 30.5 0.3 18.9 13.7 30.3 24.4 39.4l0.3 0.2c22.2 18.9 46 38.9 70.8 57.7 11.9 9 25 15.8 38 19.6 11.4 3.4 23.2 4 34.6 4.7 2.7 0.1 5.3 0.3 8 0.5 7.1 0.5 14.1 0.4 20.9 0.3 3-0.1 5.8-0.1 8.6-0.1 5 0 9.3-3.7 9.9-8.7 2.1-15.9-0.3-27.4-7.4-35.1-6.8-7.5-17.3-10.8-31.9-10.3-5.8 0.2-11.4 0.8-16.4 1.3-0.6 0.1-1.2 0.1-1.8 0.2-1-0.8-2.1-1.5-3.1-2.3-4.4-3.2-8.5-6.2-13.2-8.8-12.4-6.6-25-13.2-37.2-19.5-7.5-3.9-15.2-7.9-22.8-11.9l0.6-0.3c4.4-2.3 8.9-4.7 13.3-7.1 16.9-9.3 34.3-18.9 48-15.6 17.2 4 37.4 6.6 56.9-4.8 10-5.9 17.6-9 26.6-7.6 12.8 2 27.9 3.9 42.8 2.9 68.5 13.1 98.5 3.3 135.3-13.3 16.5-1.7 28.5 3.6 39.9 17.6 23.6 28.9 50.5 47.4 82.4 56.4l8.3 2.4c19.7 5.6 40.2 11.4 59.9 17.8 1.2 0.4 2.3 0.7 3.5 1.1 8.1 2.5 16.4 5.1 20.8 9.6 8 8 12.8 19.2 17.9 31.1 3.4 8 7 16.2 11.6 23.8 21.4 34.8 51.1 63.5 96.3 93 2.4 1.5 7.2 3.4 12 3.4 3.4 0 6.8-0.9 9.4-3.4 4.9-4.7 7.4-13.3 5.6-19.7-2.7-9.9-8-17.8-15.9-23.8 0.6 0.3 1.1 0.5 1.7 0.8 3.3 1.6 6.5 3.2 9.7 4.8 2.9 1.4 5.7 2.8 8.8 4.3l4.5 2.2c3.1 1.5 6.7 1.4 9.6-0.4s4.7-4.9 4.8-8.4c0.4-11.3-0.6-25.4-9.6-34.7z"  p-id="48974"></path><path d="M364.1 314.7c2.6-0.1 6-1.6 7.4-3.7 14.5-21.4 22.4-60-3.4-84.2-20.8-19.6-42.2-37.2-67.2-51.6-32.5-18.8-47-37.4-35.9-75.9 4 37.8 4 37.8 12.4 43.9 2.2-9.7 4.1-18.4 6.1-27.2 0.7 0 1.3 0.1 2 0.1 0 8.9 0.5 17.8-0.1 26.7-0.8 12.4 8.6 22.8 20.1 23.2-0.8-16.6-1.7-33.3-2.1-49.9-0.1-2.6 1.8-5.3 5.1-7.7 0.9 12.9 0.2 26.1 3.1 38.5 2.9 12.4 9.4 24 23.4 28.4 2.7-5 5.2-9.7 7.7-14.5 1.1-0.3 2.2-0.5 3.3-0.8-9 32.7 17 41.2 33.2 56.3 1.3-0.3 2.7-0.6 4-0.9 1.2-8 1.7-16.2 3.9-24 2.2-7.6 6.1-14.8 9.3-22.1 0.9 0.4 1.8 0.8 2.8 1.1-1.8 8.2-5.1 16.4-5.1 24.7-0.1 15.8 0.3 31.8 3 47.3 3.1 17.6 3.1 34.2-2.3 51.4-2.7 8.7-2 18.4-3.1 30.9 15.9-12.3 30.9-22.3 35.2-40.7 4.8-20.2 3.3-40.3-3.8-60.3-5.5-15.5-7.2-32.4-12.2-48.1-4.8-15.1-11.4-29.6-17.7-44.1-6.1-14-4.7-28.2-1.5-42.3 0.8-3.5 4.8-6.3 7.3-9.3 0.8 0.6 1.5 1.2 2.3 1.8-1.6 7.1-3.3 14.2-4.9 21.3 1.2 0.8 2.3 1.5 3.5 2.3 6.6-4.8 13.2-9.7 19.8-14.5 0.4 0.5 0.8 0.9 1.2 1.4-4.3 3.9-8.7 7.8-12.9 11.8-10.6 10.1-11.1 31.1-0.5 40.9 1.3 1.2 7.6-0.2 8.9-2.2 4.5-6.5 7.2-14.2 11.7-20.8 4.2-6.3 9.7-11.7 17.2-16.3-11.3 26-28.1 50.2-19.1 82.2 7.9-4.1 15.2-7.9 22.4-11.7l1.8 2.4c-3.4 3.7-6.4 8-10.4 11-7.8 5.8-9.2 13.5-7.6 22.1 1.7 8.9 3.4 17.9 6 26.6 4.5 15.1 9.5 16.5 21.3 6.6 8.1-6.9 16-13.9 24.1-20.8 2.2-1.9 4.6-3.4 8.6-3.8-1.1 1.9-1.8 4.2-3.2 5.7-5.9 6.4-11.7 12.9-18 18.9-12 11.4-21.2 24.1-25.6 40.6-5.6 20.6-21.1 34.4-36.3 48.3-5.9 5.4-10.8 11.8-16.2 17.7 0.8 1.1 1.6 2.3 2.3 3.4"  p-id="48975"></path><path d="M898.2 900.8c-8.6-8.8-21.4-10.1-31.6-10.1-0.5-0.1-1.4-0.6-1.7-1-1.6-1.8-3.1-4-4.7-6.4-2.8-4.2-6-8.9-10.6-12.6-16.1-12.7-30.1-24.5-39.4-40.1-3.7-6.2-7.2-12.8-10.7-19.2-4.2-7.7-8.5-15.7-13.2-23.4-6.1-9.8-12.7-16-19.8-18.4-9.3-3.2-18.9-5.4-28.1-7.5-7.4-1.7-14.3-3.3-21.2-5.4-19.3-5.8-30-18-32.6-37.5-0.3-2.1-0.5-4.2-0.7-6.5-0.4-4.8-0.9-9.8-2.2-14.9-1.7-6.6-2.9-13.3-4.2-20.4-3.8-21-8.1-44.7-27.1-62.9 0.3-0.2 0.6-0.3 0.9-0.5 1.3-0.7 2.7-1.4 4.2-2.4 10.1-6.8 16.7-19.9 17.8-34.9 1-14.9-3.7-28.6-12.6-36.7-2.8-2.5-5.9-3.5-8.9-4.5-1.3-0.4-2.7-0.9-4.3-1.5-3.8-1.5-8.1-0.5-10.9 2.5-2.8 3-3.5 7.4-1.8 11.1 0.9 1.9 1.7 3.5 2.3 4.9 1 2.1 1.7 3.5 2.2 4.8 3 7.8 3.2 15.5 0.6 20.6-2 3.9-5.7 6.5-11.3 8-6.7 1.8-15.1 2.3-24.3 1.4-8.5-0.8-17.3-2.2-25.9-3.5-11.9-1.8-24.1-3.7-36.5-4.3-51-2.5-105.3-7-156.6-23-17.4-5.4-27.3-12.8-32.2-23.9-5.8-13.3-6.7-25.9-2.8-39.4 8.8-30.4 15.8-61.8 22.6-92.1l0.4-1.9c1.2-5.4 3.1-7.9 7.7-10.2 9.7-4.8 19.2-9.5 28-15.6 11.2-7.7 18-18.7 20.8-33.9 0.6-3.4-0.5-6.8-3-9.1s-6-3.2-9.3-2.4l-27.2 7.1c-7.7-12.1-18.7-17.4-25.2-19.7-1.7-4.8-4.2-13.2-4.7-15.7-0.3-6.3-0.2-12.8-0.2-19.6v-8.3c0-4.3-2.8-8.2-6.9-9.5-4.1-1.3-8.6 0.1-11.2 3.6-7.7 10.6-17.1 27.2-9 47.8 0.9 2.4 0.9 3.5 0.9 3.9-0.2 0.2-1 0.9-3.1 1.5-1.7 0.6-3.2 1.2-4.7 1.8-2.1 0.9-4.2 1.7-5.9 2-7.7 1.6-15.5 3.1-23.1 4.5-10.9 2.1-22.3 4.2-33.4 6.7-22.1 4.9-38.9 9.1-54.6 13.8-7.3 2.2-14.7 9.7-17.1 17.5-1.7 5.5-1.2 10.9 1.4 15.7 2.9 5.3 8.2 9.1 15.2 11l1.8 0.5c3.8 1 7.5 2 10.4 3.5 2.1 1.1 4.2 2.1 6.4 3.1 11.1 5.5 21.6 10.7 31.4 17.1 1.9 1.2 4.2 5.4 4.2 7-0.6 10.9-1.8 25-6.1 37.1-6.3 17.4-13.6 35-20.6 52-5.2 12.6-10.5 25.5-15.5 38.5-14.3 37.1-17.7 68.3-10.6 98.1 0.8 3.3 1.5 6.6 2.1 10.1-0.6 0.3-1.2 0.6-1.7 1-4.2 2.9-8.5 6.1-12.6 9.1-20.3 14.9-41.4 30.3-58.4 30.4-0.2 0-17.6 0.3-21.7 11.4-4.1 11-6.1 21.2-6 30.5 0.3 18.9 13.7 30.3 24.4 39.4l0.3 0.2c22.2 18.9 46 38.9 70.8 57.7 11.9 9 25 15.8 38 19.6 11.4 3.4 23.2 4 34.6 4.7 2.7 0.1 5.3 0.3 8 0.5 7.1 0.5 14.1 0.4 20.9 0.3 3-0.1 5.8-0.1 8.6-0.1 5 0 9.3-3.7 9.9-8.7 2.1-15.9-0.3-27.4-7.4-35.1-6.8-7.5-17.3-10.8-31.9-10.3-5.8 0.2-11.4 0.8-16.4 1.3-0.6 0.1-1.2 0.1-1.8 0.2-1-0.8-2.1-1.5-3.1-2.3-4.4-3.2-8.5-6.2-13.2-8.8-12.4-6.6-25-13.2-37.2-19.5-7.5-3.9-15.2-7.9-22.8-11.9l0.6-0.3c4.4-2.3 8.9-4.7 13.3-7.1 16.9-9.3 34.3-18.9 48-15.6 17.2 4 37.4 6.6 56.9-4.8 10-5.9 17.6-9 26.6-7.6 12.8 2 27.9 3.9 42.8 2.9 68.5 13.1 98.5 3.3 135.3-13.3 16.5-1.7 28.5 3.6 39.9 17.6 23.6 28.9 50.5 47.4 82.4 56.4l8.3 2.4c19.7 5.6 40.2 11.4 59.9 17.8 1.2 0.4 2.3 0.7 3.5 1.1 8.1 2.5 16.4 5.1 20.8 9.6 8 8 12.8 19.2 17.9 31.1 3.4 8 7 16.2 11.6 23.8 21.4 34.8 51.1 63.5 96.3 93 2.4 1.5 7.2 3.4 12 3.4 3.4 0 6.8-0.9 9.4-3.4 4.9-4.7 7.4-13.3 5.6-19.7-2.7-9.9-8-17.8-15.9-23.8 0.6 0.3 1.1 0.5 1.7 0.8 3.3 1.6 6.5 3.2 9.7 4.8 2.9 1.4 5.7 2.8 8.8 4.3l4.5 2.2c3.1 1.5 6.7 1.4 9.6-0.4 2.9-1.8 4.7-4.9 4.8-8.4 0.4-11.3-0.6-25.4-9.6-34.7z"  p-id="48976"></path></svg>