<?xml version="1.0" standalone="no"?><!DOCTYPE svg PUBLIC "-//W3C//DTD SVG 1.1//EN" "http://www.w3.org/Graphics/SVG/1.1/DTD/svg11.dtd"><svg t="1576741601667" class="icon" viewBox="0 0 1024 1024" version="1.1" xmlns="http://www.w3.org/2000/svg" p-id="28761" xmlns:xlink="http://www.w3.org/1999/xlink" width="32" height="32"><defs><style type="text/css"></style></defs><path d="M341.333333 739.555556l227.555556-227.555556 227.555555 227.555556z" p-id="28762" ></path><path d="M227.555556 638.293333L367.502222 512 682.666667 796.444444H227.555556z" p-id="28763" ></path><path d="M284.444444 284.444444v455.111112h455.111112V284.444444zM227.555556 227.555556h568.888888v568.888888H227.555556z" p-id="28764" ></path><path d="M625.777778 398.222222m-56.888889 0a56.888889 56.888889 0 1 0 113.777778 0 56.888889 56.888889 0 1 0-113.777778 0Z" p-id="28765" ></path><path d="M170.666667 170.666667v38.115555H113.777778v606.435556h56.888889V853.333333H56.888889V170.666667zM853.333333 170.666667v38.115555h56.888889v606.435556h-56.888889V853.333333h113.777778V170.666667z" p-id="28766" ></path></svg>