<?xml version="1.0" standalone="no"?><!DOCTYPE svg PUBLIC "-//W3C//DTD SVG 1.1//EN" "http://www.w3.org/Graphics/SVG/1.1/DTD/svg11.dtd"><svg t="1577177358306" class="icon" viewBox="0 0 1028 1024" version="1.1" xmlns="http://www.w3.org/2000/svg" p-id="52341" width="16.0625" height="16" xmlns:xlink="http://www.w3.org/1999/xlink"><defs><style type="text/css"></style></defs><path d="M386.048 735.232c0-57.856 12.8-112.128 38.4-160.256C187.392 590.336 2.048 786.944 2.048 1024h534.528c-93.184-64-150.528-169.984-150.528-288.768zM450.56 510.464h16.384c51.2-60.928 121.856-102.4 198.656-118.784 25.6-38.912 38.4-87.04 38.4-134.656C702.976 115.712 587.776 0 446.976 0s-256 115.712-256 257.024C194.56 394.752 309.248 510.464 450.56 510.464z m534.016 227.84l-6.144-3.584-3.584-3.584s6.144-3.584 9.728-6.144c25.6-12.8 38.4-38.912 35.328-64-3.584-29.184-9.728-51.712-22.528-70.656-18.944-31.744-48.128-41.472-86.528-29.184-3.584 0-6.144 3.584-9.728 3.584v-6.144c9.728-25.6 3.584-54.272-16.384-76.8-6.144-6.144-18.944-18.944-38.4-25.6-16.384-6.144-31.744-9.728-44.544-9.728-41.472 0-57.344 35.328-63.488 48.128l-3.584-3.584s0-3.584-3.584-3.584c0-3.584-3.584-6.144-3.584-9.728-12.8-18.944-31.744-31.744-54.272-31.744h-9.728c-16.384 3.584-31.744 3.584-48.128 12.8-44.544 22.528-60.928 51.712-51.2 96.256v6.144c-3.584 0-6.144 0-9.728-3.584-29.184-9.728-54.272 0-73.728 22.528-9.728 12.8-18.944 29.184-22.528 51.712-12.8 45.056 0 76.8 41.472 96.256 0 0-3.584 3.584-6.144 3.584-25.6 9.728-38.4 31.744-41.472 60.928 0 35.328 9.728 67.072 35.328 89.6 16.384 16.384 35.328 22.528 60.928 18.944 3.584 0 6.144 0 9.728-3.584h3.584v3.584c-9.728 29.184-3.584 54.272 18.944 76.8 16.384 16.384 35.328 25.6 60.928 31.744 12.8 3.584 22.528 3.584 29.184 3.584 38.4 0 57.344-31.744 63.488-45.056 0-3.584 3.584-3.584 3.584-3.584l3.584 3.584 3.584 3.584c0 3.584 3.584 6.144 6.144 9.728 16.384 25.6 38.4 35.328 67.072 31.744 22.528-3.584 41.472-9.728 60.928-22.528 31.744-22.528 41.472-54.272 29.184-89.6h9.728c38.4 9.728 67.072-3.584 89.6-38.912 9.728-16.384 16.384-35.328 18.944-57.856-0.512-24.064-16.384-50.176-41.984-66.048z m-73.728 3.072c3.584 18.944 12.8 38.912 31.744 48.128 3.584 0 3.584 3.584 6.144 3.584h3.584c6.144 3.584 6.144 3.584 6.144 9.728 0 12.8-3.584 18.944-9.728 29.184-6.144 9.728-9.728 9.728-12.8 9.728h-9.728c-3.584 0-6.144 0-9.728-3.584h-3.584c-29.184-3.584-51.2 6.144-63.488 25.6-12.8 18.944-12.8 41.472-6.144 64 3.584 6.144 3.584 6.144-3.584 12.8-9.728 6.144-22.528 12.8-38.4 12.8l-3.584-3.584s0-3.584-3.584-6.144c0-3.584-3.584-3.584-3.584-3.584-16.384-29.184-41.472-35.328-57.344-35.328-12.8 0-38.4 3.584-57.344 35.328-6.144 9.728-9.728 12.8-9.728 12.8-3.584 0-6.144 0-12.8-3.584-12.8-3.584-25.6-9.728-35.328-18.944v-3.584c0-3.584 0-3.584 3.584-9.728 6.144-18.944 6.144-38.912-6.144-54.272-9.728-16.384-29.184-25.6-48.128-25.6h-9.728c-6.144 0-12.8 0-18.944 3.584h-9.728c-12.8-12.8-16.384-29.184-16.384-48.128 16.384-6.144 25.6-16.384 35.328-29.184 9.728-16.384 12.8-31.744 9.728-51.712-3.584-19.456-16.384-35.328-35.328-45.056-12.8-6.144-12.8-6.144-9.728-22.528 3.584-12.8 6.144-18.944 12.8-25.6l3.584-3.584h3.584c18.944 6.144 31.744 6.144 44.544 3.584 35.328-9.728 54.272-41.472 48.128-83.456-3.584-9.728 0-12.8 0-12.8s3.584-3.584 16.384-9.728c9.728-3.584 16.384-6.144 29.184-6.144l3.584 3.584c3.584 3.584 3.584 6.144 6.144 9.728 12.8 18.944 35.328 31.744 57.344 31.744 22.528 0 44.544-12.8 54.272-35.328 6.144-12.8 9.728-12.8 9.728-12.8 6.144 0 18.944 6.144 25.6 6.144 6.144 3.584 9.728 6.144 16.384 9.728 3.584 3.584 3.584 3.584 3.584 6.144-6.144 16.384-6.144 31.744-3.584 45.056 6.144 31.744 38.4 54.272 73.728 48.128 6.144 0 12.8-3.584 18.944-6.144 3.584 0 6.144 0 6.144-3.584 0 0 3.584 0 6.144 6.144 6.144 9.728 9.728 22.528 12.8 38.912l-6.144 16.384c-6.144 3.584-16.384 9.728-25.6 18.944-15.36 13.824-22.016 33.28-18.944 52.224z m-172.544-134.656c-70.656 0-128 57.856-128 128.512s57.344 128.512 128 128.512 128-57.856 128-128.512-57.856-128.512-128-128.512z m0 193.024c-35.328 0-63.488-29.184-63.488-64 0-35.328 29.184-64 63.488-64 35.328 0 63.488 29.184 63.488 64s-28.16 64-63.488 64z" p-id="52342"></path></svg>