<?xml version="1.0" standalone="no"?><!DOCTYPE svg PUBLIC "-//W3C//DTD SVG 1.1//EN" "http://www.w3.org/Graphics/SVG/1.1/DTD/svg11.dtd"><svg t="1576741301940" class="icon" viewBox="0 0 1024 1024" version="1.1" xmlns="http://www.w3.org/2000/svg" p-id="19872" xmlns:xlink="http://www.w3.org/1999/xlink" width="32" height="32"><defs><style type="text/css"></style></defs><path d="M949.248 899.072c7.168 7.168 10.752 15.36 10.752 25.6s-3.584 18.432-10.752 25.6-15.36 10.752-25.6 10.752H99.84c-10.24 0-18.432-3.584-25.6-10.752s-10.752-15.36-10.752-25.6V99.328c0-10.24 3.584-18.432 10.752-25.6s15.36-10.752 25.6-10.752 18.432 3.584 25.6 10.752 10.752 15.36 10.752 25.6v788.992h787.968c9.728 0 18.432 3.584 25.088 10.752z m-675.84-215.04c12.288 12.288 27.648 18.432 46.592 18.432 18.432 0 34.304-6.144 46.592-18.432 12.288-12.288 18.432-27.648 18.432-46.592 0-18.432-6.144-34.304-18.432-46.592-12.288-12.288-27.648-18.432-46.592-18.432-18.432 0-34.304 6.144-46.592 18.432-12.288 12.288-18.944 27.648-19.456 46.592 0.512 18.944 7.168 34.304 19.456 46.592z m264.704-26.112c15.872 16.384 36.352 24.576 60.416 24.576 24.576 0 44.544-8.192 60.416-24.576 15.872-16.384 24.064-36.352 24.064-60.416s-8.192-44.032-24.064-60.416c-15.872-16.384-36.352-24.576-60.416-24.576-24.576 0-44.544 8.192-60.416 24.576-15.872 16.384-24.576 36.352-25.088 60.416 0.512 24.064 9.216 44.032 25.088 60.416z m33.792-245.76c5.12 9.216 12.8 16.384 22.016 22.016 9.216 5.632 19.456 8.704 30.208 8.704 10.752 0 20.48-3.072 30.208-8.704 9.216-5.632 16.896-12.8 22.016-22.016 5.12-9.216 8.192-18.944 8.192-29.696 0-10.752-2.56-20.48-8.192-30.208-5.12-9.216-12.8-16.896-22.016-22.016-9.216-5.12-19.456-8.192-30.208-8.192-10.752 0-20.48 2.56-30.208 8.192-9.216 5.12-16.896 12.8-22.016 22.016-5.12 9.216-8.192 19.456-8.192 30.208 0.512 10.752 3.072 20.48 8.192 29.696zM819.2 271.36c8.704 8.704 19.456 12.8 32.256 12.8s23.552-4.096 32.256-12.8c8.192-8.704 12.288-19.456 12.288-32.256s-4.096-23.552-12.288-32.256c-8.192-8.192-18.944-12.288-32.256-12.288s-24.064 4.096-32.256 12.288c-8.704 8.192-12.8 18.944-12.8 32.256-0.512 13.312 4.096 23.552 12.8 32.256z m21.504 182.784c6.144 6.144 14.336 9.728 23.552 9.728 9.216 0 17.408-3.072 23.552-9.728 6.144-6.144 9.728-14.336 9.728-23.552 0-9.216-3.072-17.408-9.728-23.552a32.8704 32.8704 0 0 0-23.552-9.728c-9.216 0-17.408 3.072-23.552 9.728a32.8704 32.8704 0 0 0-9.728 23.552c0 9.216 3.072 16.896 9.728 23.552z" p-id="19873" ></path></svg>