<?xml version="1.0" standalone="no"?><!DOCTYPE svg PUBLIC "-//W3C//DTD SVG 1.1//EN" "http://www.w3.org/Graphics/SVG/1.1/DTD/svg11.dtd"><svg t="1576741800991" class="icon" viewBox="0 0 1024 1024" version="1.1" xmlns="http://www.w3.org/2000/svg" p-id="40195" xmlns:xlink="http://www.w3.org/1999/xlink" width="32" height="32"><defs><style type="text/css"></style></defs><path d="M877.714286 1024H146.285714a146.285714 146.285714 0 0 1-146.285714-146.285714V146.285714a146.285714 146.285714 0 0 1 146.285714-146.285714h731.428572a146.285714 146.285714 0 0 1 146.285714 146.285714v731.428572a146.285714 146.285714 0 0 1-146.285714 146.285714z m73.142857-877.714286a73.142857 73.142857 0 0 0-73.142857-73.142857H146.285714a73.142857 73.142857 0 0 0-73.142857 73.142857v731.428572a73.142857 73.142857 0 0 0 73.142857 73.142857h731.428572a73.142857 73.142857 0 0 0 73.142857-73.142857V146.285714z"  p-id="40196"></path><path d="M219.428571 593.188571a408.502857 408.502857 0 0 1 147.017143 95.817143l103.716572 116.297143a943.908571 943.908571 0 0 1 152.283428-212.114286A667.574857 667.574857 0 0 1 804.571429 438.857143a787.163429 787.163429 0 0 1-10.093715-92.891429c-2.048-68.022857 1.097143-126.537143 1.097143-126.537143s-87.771429 16.822857-199.972571 186.514286a1112.576 1112.576 0 0 0-134.363429 241.371429l-80.457143-166.034286-160.914285 111.908571z"  p-id="40197"></path></svg>