<?xml version="1.0" standalone="no"?><!DOCTYPE svg PUBLIC "-//W3C//DTD SVG 1.1//EN" "http://www.w3.org/Graphics/SVG/1.1/DTD/svg11.dtd"><svg t="1576741355849" class="icon" viewBox="0 0 1024 1024" version="1.1" xmlns="http://www.w3.org/2000/svg" p-id="21762" xmlns:xlink="http://www.w3.org/1999/xlink" width="32" height="32"><defs><style type="text/css"></style></defs><path d="M716.8 391.68c-28.16 12.8-58.88 17.92-81.92 23.04 23.04 2.56 53.76 7.68 81.92 20.48 48.64 23.04 133.12 25.6 161.28 25.6 2.56-10.24 7.68-20.48 17.92-28.16 17.92-12.8 43.52-7.68 56.32 12.8 12.8 17.92 7.68 43.52-12.8 56.32-17.92 10.24-43.52 5.12-56.32-12.8-5.12-7.68-7.68-15.36-7.68-23.04-28.16 0-115.2-2.56-163.84-25.6-38.4-17.92-81.92-20.48-104.96-23.04 0 23.04-17.92 40.96-40.96 40.96-20.48 0-38.4-15.36-40.96-38.4-43.52 0-143.36 7.68-220.16 51.2-58.88 30.72-122.88 40.96-158.72 43.52 35.84 2.56 99.84 12.8 158.72 43.52 79.36 40.96 176.64 48.64 220.16 51.2 2.56-20.48 17.92-38.4 40.96-38.4 20.48 0 38.4 15.36 38.4 35.84 23.04-2.56 66.56-7.68 104.96-25.6 48.64-23.04 135.68-23.04 163.84-23.04v-2.56c0-23.04 17.92-40.96 40.96-40.96s40.96 17.92 40.96 40.96c0 23.04-17.92 40.96-40.96 40.96-17.92 0-35.84-12.8-38.4-30.72-28.16 0-115.2 0-163.84 23.04-28.16 12.8-58.88 17.92-81.92 23.04 23.04 2.56 53.76 7.68 81.92 20.48 48.64 20.48 133.12 25.6 161.28 25.6 0-12.8 7.68-23.04 17.92-30.72 17.92-12.8 43.52-7.68 56.32 12.8 12.8 17.92 7.68 43.52-12.8 56.32-17.92 12.8-43.52 7.68-56.32-12.8-2.56-5.12-5.12-12.8-5.12-17.92-28.16 0-115.2-2.56-163.84-25.6-38.4-17.92-81.92-20.48-104.96-23.04-2.56 20.48-17.92 35.84-40.96 35.84-20.48 0-38.4-15.36-40.96-35.84-43.52 0-143.36-7.68-222.72-51.2-48.64-25.6-102.4-38.4-138.24-40.96 30.72 12.8 76.8 43.52 120.32 112.64 74.24 112.64 176.64 148.48 243.2 161.28 2.56-17.92 20.48-33.28 38.4-33.28 20.48 0 38.4 15.36 38.4 35.84 23.04-2.56 66.56-7.68 104.96-25.6 48.64-23.04 135.68-23.04 163.84-23.04 0-23.04 17.92-40.96 40.96-40.96s40.96 17.92 40.96 40.96c0 23.04-17.92 40.96-40.96 40.96-20.48 0-35.84-15.36-38.4-33.28-28.16 0-115.2 0-163.84 23.04-28.16 12.8-58.88 17.92-81.92 23.04 23.04 2.56 53.76 7.68 81.92 20.48 48.64 20.48 133.12 25.6 161.28 25.6 2.56-10.24 7.68-23.04 17.92-28.16 17.92-12.8 43.52-7.68 56.32 12.8 12.8 17.92 7.68 43.52-12.8 56.32-17.92 12.8-43.52 7.68-56.32-12.8-5.12-5.12-5.12-12.8-5.12-20.48-28.16 0-115.2-2.56-163.84-25.6-38.4-17.92-81.92-20.48-104.96-23.04-2.56 20.48-17.92 35.84-40.96 35.84-23.04 0-40.96-17.92-40.96-40.96-56.32-15.36-161.28-53.76-238.08-166.4-53.76-81.92-107.52-107.52-138.24-115.2-2.56 20.48-20.48 33.28-38.4 33.28-23.04 0-40.96-17.92-40.96-40.96s17.92-40.96 40.96-40.96c17.92 0 33.28 12.8 38.4 30.72 28.16-7.68 81.92-30.72 138.24-115.2 76.8-115.2 179.2-151.04 248.32-163.84v-5.12c0-23.04 17.92-40.96 40.96-40.96 20.48 0 38.4 15.36 40.96 35.84 23.04-2.56 66.56-7.68 104.96-25.6 48.64-23.04 135.68-23.04 163.84-23.04v-2.56c0-23.04 17.92-40.96 40.96-40.96s40.96 17.92 40.96 40.96c0 23.04-17.92 40.96-40.96 40.96-17.92 0-35.84-12.8-38.4-30.72-28.16 0-115.2 0-163.84 23.04-28.16 12.8-58.88 17.92-81.92 23.04 23.04 2.56 53.76 7.68 81.92 20.48 48.64 20.48 133.12 25.6 161.28 25.6 0-12.8 7.68-23.04 17.92-30.72 17.92-12.8 43.52-7.68 56.32 12.8 12.8 17.92 7.68 43.52-12.8 56.32-17.92 12.8-43.52 7.68-56.32-12.8-2.56-5.12-5.12-12.8-5.12-17.92-28.16 0-115.2-2.56-163.84-25.6-40.96-15.36-84.48-20.48-107.52-20.48-2.56 20.48-17.92 35.84-40.96 35.84-17.92 0-33.28-12.8-38.4-28.16-66.56 12.8-168.96 48.64-243.2 161.28-46.08 69.12-89.6 97.28-120.32 112.64 35.84-5.12 89.6-15.36 138.24-40.96 79.36-40.96 179.2-48.64 222.72-51.2 2.56-20.48 17.92-35.84 40.96-35.84 17.92 0 35.84 12.8 38.4 30.72 23.04-2.56 66.56-7.68 104.96-25.6 48.64-23.04 135.68-23.04 163.84-23.04 0-23.04 17.92-38.4 40.96-38.4 23.04 0 40.96 17.92 40.96 40.96 0 23.04-17.92 40.96-40.96 40.96-20.48 0-35.84-15.36-38.4-35.84-28.16-5.12-115.2-5.12-161.28 17.92z"  p-id="21763"></path></svg>